<svg xmlns="http://www.w3.org/2000/svg" xmlns:xlink="http://www.w3.org/1999/xlink" width="1080" zoomAndPan="magnify" viewBox="0 0 810 809.999993" height="1080" preserveAspectRatio="xMidYMid meet" version="1.0"><defs><clipPath id="7f6b348b67"><path d="M 67 181 L 748 181 L 748 709.5 L 67 709.5 Z M 67 181 " clip-rule="nonzero"/></clipPath></defs><path fill="#006fb1" d="M 92.144531 346.488281 C 143.191406 346.488281 184.285156 387.566406 184.285156 438.59375 L 184.285156 489.316406 C 184.285156 540.34375 143.191406 581.421875 92.144531 581.421875 C 41.097656 581.421875 0 540.34375 0 489.316406 L 0 438.59375 C 0 387.566406 41.097656 346.488281 92.144531 346.488281 Z M 92.144531 346.488281 " fill-opacity="1" fill-rule="nonzero"/><path fill="#006fb1" d="M 717.910156 346.488281 C 768.957031 346.488281 810.050781 387.566406 810.050781 438.59375 L 810.050781 489.316406 C 810.050781 540.34375 768.957031 581.421875 717.910156 581.421875 C 666.859375 581.421875 625.765625 540.34375 625.765625 489.316406 L 625.765625 438.59375 C 625.765625 387.566406 666.859375 346.488281 717.910156 346.488281 Z M 717.910156 346.488281 " fill-opacity="1" fill-rule="nonzero"/><path fill="#006fb1" d="M 289.921875 226.207031 C 289.921875 175.179688 331.015625 134.101562 382.0625 134.101562 L 432.808594 134.101562 C 483.855469 134.101562 524.953125 175.179688 524.953125 226.207031 C 524.953125 277.234375 483.855469 318.3125 432.808594 318.3125 L 382.0625 318.3125 C 331.015625 318.3125 289.921875 277.234375 289.921875 226.207031 Z M 289.921875 226.207031 " fill-opacity="1" fill-rule="nonzero"/><g clip-path="url(#7f6b348b67)"><path fill="#b6e4ff" d="M 747.375 445.332031 C 747.375 591.097656 678.273438 709.265625 407.4375 709.265625 C 159.261719 709.265625 67.5 591.097656 67.5 445.332031 C 67.5 299.570312 219.695312 181.402344 407.4375 181.402344 C 595.179688 181.402344 747.375 299.570312 747.375 445.332031 Z M 747.375 445.332031 " fill-opacity="1" fill-rule="nonzero"/></g><path fill="#000f18" d="M 679.871094 445.332031 C 679.871094 535.988281 624.492188 609.476562 407.4375 609.476562 C 208.542969 609.476562 135.003906 535.988281 135.003906 445.332031 C 135.003906 354.679688 256.976562 281.191406 407.4375 281.191406 C 557.898438 281.191406 679.871094 354.679688 679.871094 445.332031 Z M 679.871094 445.332031 " fill-opacity="1" fill-rule="nonzero"/><path fill="#e0f3ff" d="M 407.4375 273.011719 C 330.875 273.011719 261.449219 291.605469 210.574219 322.261719 C 159.695312 352.914062 126.820312 396.339844 126.820312 445.335938 C 126.820312 492.871094 146.746094 537.058594 192 568.140625 C 237.253906 599.222656 306.980469 617.65625 407.4375 617.65625 C 516.886719 617.65625 586.6875 599.3125 629.855469 568.023438 C 673.019531 536.730469 688.054688 492.328125 688.054688 445.335938 C 688.054688 396.339844 655.179688 352.914062 604.300781 322.261719 C 553.425781 291.609375 484 273.011719 407.4375 273.011719 Z M 407.4375 289.371094 C 481.335938 289.371094 548.125 307.519531 595.851562 336.273438 C 643.574219 365.027344 671.6875 403.675781 671.6875 445.335938 C 671.6875 488.996094 659.03125 526.660156 620.246094 554.777344 C 581.460938 582.894531 515.039062 601.296875 407.4375 601.296875 C 309 601.296875 242.507812 582.984375 201.269531 554.660156 C 160.027344 526.332031 143.1875 488.449219 143.1875 445.335938 C 143.1875 403.675781 171.296875 365.027344 219.019531 336.273438 C 266.746094 307.519531 333.539062 289.371094 407.4375 289.371094 Z M 407.4375 289.371094 " fill-opacity="1" fill-rule="nonzero"/><path fill="#ffbe2f" d="M 336.070312 438.035156 C 336.070312 439.65625 336.019531 441.277344 335.921875 442.890625 C 335.820312 444.503906 335.671875 446.109375 335.472656 447.699219 C 335.273438 449.292969 335.027344 450.863281 334.730469 452.417969 C 334.433594 453.96875 334.089844 455.496094 333.699219 456.996094 C 333.308594 458.496094 332.875 459.960938 332.394531 461.390625 C 331.910156 462.824219 331.386719 464.210938 330.820312 465.5625 C 330.253906 466.910156 329.648438 468.214844 329 469.46875 C 328.351562 470.722656 327.667969 471.921875 326.945312 473.070312 C 326.226562 474.21875 325.46875 475.304688 324.683594 476.335938 C 323.894531 477.367188 323.074219 478.332031 322.226562 479.234375 C 321.378906 480.132812 320.503906 480.96875 319.605469 481.734375 C 318.707031 482.496094 317.785156 483.191406 316.839844 483.8125 C 315.898438 484.433594 314.9375 484.980469 313.960938 485.449219 C 312.984375 485.921875 311.996094 486.316406 310.996094 486.632812 C 309.996094 486.949219 308.988281 487.1875 307.972656 487.34375 C 306.957031 487.503906 305.9375 487.582031 304.917969 487.582031 C 303.898438 487.582031 302.878906 487.503906 301.867188 487.34375 C 300.851562 487.1875 299.84375 486.949219 298.839844 486.632812 C 297.839844 486.316406 296.851562 485.921875 295.875 485.449219 C 294.898438 484.980469 293.941406 484.433594 292.996094 483.8125 C 292.054688 483.191406 291.132812 482.496094 290.234375 481.734375 C 289.335938 480.96875 288.460938 480.132812 287.613281 479.234375 C 286.761719 478.332031 285.945312 477.367188 285.15625 476.335938 C 284.367188 475.304688 283.613281 474.21875 282.890625 473.070312 C 282.167969 471.921875 281.484375 470.722656 280.835938 469.46875 C 280.191406 468.214844 279.585938 466.910156 279.015625 465.5625 C 278.449219 464.210938 277.925781 462.824219 277.445312 461.390625 C 276.964844 459.960938 276.527344 458.496094 276.136719 456.996094 C 275.746094 455.496094 275.402344 453.96875 275.109375 452.417969 C 274.8125 450.863281 274.5625 449.292969 274.363281 447.699219 C 274.164062 446.109375 274.015625 444.503906 273.914062 442.890625 C 273.816406 441.277344 273.765625 439.65625 273.765625 438.035156 C 273.765625 436.410156 273.816406 434.792969 273.914062 433.175781 C 274.015625 431.5625 274.167969 429.957031 274.367188 428.367188 C 274.5625 426.777344 274.8125 425.203125 275.109375 423.652344 C 275.402344 422.097656 275.746094 420.570312 276.136719 419.070312 C 276.527344 417.574219 276.964844 416.105469 277.445312 414.675781 C 277.925781 413.246094 278.449219 411.855469 279.015625 410.503906 C 279.585938 409.15625 280.191406 407.855469 280.835938 406.601562 C 281.484375 405.34375 282.167969 404.144531 282.890625 402.996094 C 283.613281 401.847656 284.367188 400.761719 285.15625 399.730469 C 285.945312 398.703125 286.761719 397.738281 287.613281 396.835938 C 288.460938 395.933594 289.335938 395.101562 290.234375 394.335938 C 291.132812 393.570312 292.054688 392.875 292.996094 392.253906 C 293.941406 391.636719 294.898438 391.089844 295.875 390.617188 C 296.851562 390.148438 297.839844 389.753906 298.839844 389.4375 C 299.84375 389.121094 300.851562 388.882812 301.863281 388.722656 C 302.878906 388.5625 303.898438 388.484375 304.917969 388.484375 C 305.9375 388.484375 306.957031 388.5625 307.972656 388.722656 C 308.988281 388.882812 309.996094 389.121094 310.996094 389.4375 C 311.996094 389.753906 312.984375 390.148438 313.960938 390.617188 C 314.9375 391.089844 315.898438 391.632812 316.839844 392.253906 C 317.785156 392.875 318.707031 393.570312 319.605469 394.335938 C 320.503906 395.101562 321.378906 395.933594 322.226562 396.835938 C 323.074219 397.734375 323.890625 398.703125 324.679688 399.730469 C 325.46875 400.761719 326.226562 401.847656 326.945312 402.996094 C 327.667969 404.144531 328.351562 405.34375 329 406.601562 C 329.648438 407.855469 330.253906 409.15625 330.820312 410.503906 C 331.386719 411.855469 331.910156 413.246094 332.394531 414.675781 C 332.875 416.105469 333.308594 417.574219 333.699219 419.070312 C 334.089844 420.570312 334.433594 422.097656 334.730469 423.648438 C 335.027344 425.203125 335.273438 426.773438 335.472656 428.367188 C 335.671875 429.957031 335.820312 431.5625 335.921875 433.175781 C 336.019531 434.792969 336.070312 436.410156 336.070312 438.035156 Z M 336.070312 438.035156 " fill-opacity="1" fill-rule="nonzero"/><path fill="#ffbe2f" d="M 536.285156 438.035156 C 536.285156 439.65625 536.234375 441.277344 536.132812 442.890625 C 536.035156 444.503906 535.886719 446.109375 535.6875 447.699219 C 535.488281 449.292969 535.238281 450.863281 534.941406 452.417969 C 534.648438 453.96875 534.304688 455.496094 533.914062 456.996094 C 533.523438 458.496094 533.085938 459.960938 532.605469 461.390625 C 532.125 462.824219 531.601562 464.210938 531.035156 465.5625 C 530.46875 466.910156 529.859375 468.214844 529.214844 469.46875 C 528.566406 470.722656 527.882812 471.921875 527.160156 473.070312 C 526.4375 474.21875 525.683594 475.304688 524.894531 476.335938 C 524.105469 477.367188 523.289062 478.332031 522.441406 479.234375 C 521.589844 480.132812 520.71875 480.96875 519.816406 481.734375 C 518.917969 482.496094 517.996094 483.191406 517.054688 483.8125 C 516.113281 484.433594 515.152344 484.980469 514.175781 485.449219 C 513.199219 485.921875 512.210938 486.316406 511.210938 486.632812 C 510.207031 486.949219 509.199219 487.1875 508.183594 487.34375 C 507.167969 487.503906 506.152344 487.582031 505.132812 487.582031 C 504.109375 487.582031 503.09375 487.503906 502.078125 487.34375 C 501.0625 487.1875 500.054688 486.949219 499.054688 486.632812 C 498.054688 486.316406 497.066406 485.921875 496.089844 485.449219 C 495.113281 484.980469 494.152344 484.433594 493.210938 483.8125 C 492.269531 483.191406 491.347656 482.496094 490.445312 481.734375 C 489.546875 480.96875 488.671875 480.132812 487.824219 479.234375 C 486.976562 478.332031 486.15625 477.367188 485.367188 476.335938 C 484.578125 475.304688 483.824219 474.21875 483.105469 473.070312 C 482.382812 471.921875 481.699219 470.722656 481.050781 469.46875 C 480.402344 468.214844 479.796875 466.910156 479.230469 465.5625 C 478.664062 464.210938 478.140625 462.824219 477.65625 461.390625 C 477.175781 459.960938 476.742188 458.496094 476.351562 456.996094 C 475.960938 455.496094 475.617188 453.96875 475.320312 452.417969 C 475.023438 450.863281 474.777344 449.292969 474.578125 447.699219 C 474.378906 446.109375 474.230469 444.503906 474.128906 442.890625 C 474.027344 441.277344 473.976562 439.65625 473.980469 438.035156 C 473.976562 436.410156 474.027344 434.792969 474.128906 433.175781 C 474.226562 431.5625 474.378906 429.957031 474.578125 428.367188 C 474.777344 426.777344 475.023438 425.203125 475.320312 423.652344 C 475.617188 422.097656 475.957031 420.570312 476.351562 419.070312 C 476.738281 417.574219 477.175781 416.105469 477.65625 414.675781 C 478.136719 413.246094 478.660156 411.855469 479.230469 410.503906 C 479.796875 409.15625 480.402344 407.855469 481.050781 406.601562 C 481.699219 405.34375 482.382812 404.144531 483.105469 402.996094 C 483.824219 401.847656 484.578125 400.761719 485.367188 399.730469 C 486.15625 398.703125 486.976562 397.738281 487.824219 396.835938 C 488.671875 395.933594 489.546875 395.101562 490.445312 394.335938 C 491.347656 393.570312 492.269531 392.875 493.210938 392.253906 C 494.152344 391.636719 495.113281 391.089844 496.089844 390.617188 C 497.0625 390.148438 498.054688 389.753906 499.054688 389.4375 C 500.054688 389.121094 501.0625 388.882812 502.078125 388.722656 C 503.09375 388.5625 504.109375 388.484375 505.132812 388.484375 C 506.152344 388.484375 507.167969 388.5625 508.183594 388.722656 C 509.199219 388.882812 510.207031 389.121094 511.210938 389.4375 C 512.210938 389.753906 513.199219 390.148438 514.175781 390.617188 C 515.152344 391.089844 516.109375 391.632812 517.054688 392.253906 C 517.996094 392.875 518.917969 393.570312 519.816406 394.335938 C 520.71875 395.101562 521.589844 395.933594 522.441406 396.835938 C 523.289062 397.734375 524.105469 398.703125 524.894531 399.730469 C 525.683594 400.761719 526.4375 401.847656 527.160156 402.996094 C 527.878906 404.144531 528.566406 405.34375 529.214844 406.601562 C 529.859375 407.855469 530.46875 409.15625 531.035156 410.503906 C 531.601562 411.855469 532.125 413.246094 532.605469 414.675781 C 533.085938 416.105469 533.523438 417.574219 533.914062 419.070312 C 534.304688 420.570312 534.648438 422.097656 534.941406 423.648438 C 535.238281 425.203125 535.488281 426.773438 535.6875 428.367188 C 535.886719 429.957031 536.035156 431.5625 536.132812 433.175781 C 536.234375 434.792969 536.285156 436.410156 536.285156 438.035156 Z M 536.285156 438.035156 " fill-opacity="1" fill-rule="nonzero"/><path fill="#006fb1" d="M 405.40625 81.578125 C 334.976562 81.953125 264.648438 101.84375 202.902344 141.207031 C 79.414062 219.929688 12.09375 362.609375 29.867188 507.933594 C 29.960938 508.703125 30.132812 509.457031 30.375 510.191406 C 30.617188 510.929688 30.925781 511.632812 31.308594 512.308594 C 31.691406 512.984375 32.132812 513.613281 32.640625 514.203125 C 33.144531 514.789062 33.703125 515.324219 34.316406 515.800781 C 34.925781 516.277344 35.578125 516.691406 36.269531 517.039062 C 36.960938 517.390625 37.679688 517.667969 38.429688 517.875 C 39.175781 518.085938 39.9375 518.21875 40.710938 518.273438 C 41.484375 518.332031 42.253906 518.316406 43.023438 518.222656 C 43.792969 518.125 44.546875 517.957031 45.285156 517.714844 C 46.019531 517.472656 46.726562 517.160156 47.402344 516.78125 C 48.078125 516.398438 48.707031 515.957031 49.296875 515.449219 C 49.882812 514.945312 50.417969 514.386719 50.894531 513.773438 C 51.375 513.164062 51.785156 512.511719 52.136719 511.820312 C 52.484375 511.128906 52.761719 510.410156 52.972656 509.664062 C 53.179688 508.914062 53.3125 508.15625 53.371094 507.382812 C 53.425781 506.609375 53.410156 505.835938 53.316406 505.066406 C 36.636719 368.71875 99.742188 234.976562 215.605469 161.117188 C 331.472656 87.253906 479.398438 86.464844 596.046875 159.085938 C 712.695312 231.707031 777.222656 364.769531 762 501.289062 C 761.914062 502.058594 761.902344 502.828125 761.96875 503.601562 C 762.035156 504.375 762.175781 505.132812 762.390625 505.878906 C 762.609375 506.621094 762.894531 507.339844 763.25 508.027344 C 763.609375 508.714844 764.027344 509.363281 764.511719 509.96875 C 764.996094 510.574219 765.535156 511.125 766.128906 511.625 C 766.722656 512.125 767.359375 512.558594 768.039062 512.933594 C 768.714844 513.308594 769.425781 513.613281 770.164062 513.847656 C 770.902344 514.082031 771.660156 514.242188 772.429688 514.328125 C 773.199219 514.414062 773.972656 514.421875 774.746094 514.359375 C 775.515625 514.292969 776.277344 514.152344 777.019531 513.933594 C 777.765625 513.71875 778.484375 513.433594 779.171875 513.078125 C 779.859375 512.71875 780.507812 512.300781 781.113281 511.816406 C 781.71875 511.332031 782.269531 510.792969 782.769531 510.199219 C 783.269531 509.609375 783.707031 508.972656 784.082031 508.292969 C 784.457031 507.613281 784.761719 506.90625 784.996094 506.164062 C 785.230469 505.425781 785.390625 504.671875 785.476562 503.902344 C 801.699219 358.398438 732.859375 216.445312 608.535156 139.042969 C 546.371094 100.34375 475.835938 81.203125 405.40625 81.578125 Z M 405.40625 81.578125 " fill-opacity="1" fill-rule="nonzero"/><path fill="#006fb1" d="M 43.628906 414.21875 C 42.867188 414.085938 42.097656 414.027344 41.324219 414.046875 C 40.546875 414.0625 39.78125 414.15625 39.023438 414.324219 C 38.265625 414.492188 37.535156 414.734375 36.824219 415.046875 C 36.113281 415.359375 35.441406 415.738281 34.808594 416.183594 C 34.171875 416.628906 33.585938 417.132812 33.050781 417.691406 C 32.515625 418.253906 32.039062 418.859375 31.625 419.515625 C 31.207031 420.167969 30.859375 420.855469 30.578125 421.578125 C 30.300781 422.300781 30.09375 423.046875 29.957031 423.808594 C 29.957031 423.808594 18.84375 488 61.972656 551.09375 C 105.105469 614.191406 201.425781 674.824219 407.4375 674.824219 C 408.210938 674.824219 408.980469 674.75 409.742188 674.597656 C 410.503906 674.445312 411.242188 674.222656 411.957031 673.925781 C 412.675781 673.628906 413.355469 673.265625 414 672.835938 C 414.644531 672.40625 415.238281 671.914062 415.789062 671.367188 C 416.335938 670.820312 416.824219 670.222656 417.257812 669.578125 C 417.6875 668.933594 418.050781 668.253906 418.347656 667.539062 C 418.644531 666.820312 418.867188 666.082031 419.019531 665.324219 C 419.171875 664.5625 419.246094 663.792969 419.246094 663.019531 C 419.246094 662.246094 419.171875 661.476562 419.019531 660.714844 C 418.871094 659.957031 418.644531 659.21875 418.347656 658.5 C 418.050781 657.785156 417.6875 657.105469 417.257812 656.460938 C 416.828125 655.816406 416.335938 655.21875 415.789062 654.671875 C 415.242188 654.121094 414.644531 653.632812 414 653.203125 C 413.355469 652.769531 412.675781 652.40625 411.957031 652.109375 C 411.242188 651.8125 410.503906 651.589844 409.742188 651.4375 C 408.980469 651.289062 408.210938 651.210938 407.4375 651.210938 C 206.011719 651.210938 119.40625 593.261719 81.476562 537.773438 C 43.546875 482.285156 53.226562 427.886719 53.226562 427.886719 C 53.359375 427.125 53.417969 426.355469 53.402344 425.578125 C 53.382812 424.804688 53.289062 424.039062 53.121094 423.28125 C 52.953125 422.523438 52.710938 421.792969 52.398438 421.082031 C 52.085938 420.375 51.707031 419.703125 51.257812 419.066406 C 50.816406 418.433594 50.3125 417.847656 49.75 417.3125 C 49.191406 416.777344 48.582031 416.300781 47.929688 415.882812 C 47.273438 415.46875 46.585938 415.121094 45.859375 414.839844 C 45.136719 414.558594 44.394531 414.351562 43.628906 414.21875 Z M 43.628906 414.21875 " fill-opacity="1" fill-rule="nonzero"/><path fill="#006fb1" d="M 373.074219 630.378906 L 441.796875 630.378906 C 458.878906 630.378906 472.628906 644.125 472.628906 661.199219 C 472.628906 678.273438 458.878906 692.015625 441.796875 692.015625 L 373.074219 692.015625 C 355.996094 692.015625 342.246094 678.273438 342.246094 661.199219 C 342.246094 644.125 355.996094 630.378906 373.074219 630.378906 Z M 373.074219 630.378906 " fill-opacity="1" fill-rule="nonzero"/><path fill="#ffbe2f" d="M 374.304688 516.066406 C 373.402344 516.265625 372.574219 516.628906 371.816406 517.160156 C 371.058594 517.6875 370.429688 518.339844 369.929688 519.121094 C 369.683594 519.503906 369.476562 519.910156 369.308594 520.335938 C 369.144531 520.765625 369.019531 521.203125 368.941406 521.652344 C 368.859375 522.101562 368.824219 522.558594 368.832031 523.015625 C 368.84375 523.472656 368.898438 523.925781 368.996094 524.371094 C 369.09375 524.816406 369.234375 525.25 369.417969 525.667969 C 369.601562 526.089844 369.824219 526.484375 370.085938 526.863281 C 370.347656 527.238281 370.644531 527.582031 370.976562 527.898438 C 371.304688 528.214844 371.664062 528.5 372.050781 528.746094 C 372.050781 528.746094 404.761719 549.09375 442.355469 529.019531 C 442.757812 528.800781 443.136719 528.550781 443.488281 528.257812 C 443.84375 527.96875 444.164062 527.648438 444.457031 527.292969 C 444.746094 526.941406 445 526.5625 445.214844 526.15625 C 445.429688 525.753906 445.605469 525.332031 445.738281 524.894531 C 445.871094 524.457031 445.960938 524.011719 446.003906 523.554688 C 446.050781 523.101562 446.050781 522.644531 446.003906 522.191406 C 445.960938 521.734375 445.871094 521.289062 445.738281 520.851562 C 445.605469 520.414062 445.433594 519.992188 445.21875 519.589844 C 445 519.1875 444.75 518.808594 444.457031 518.453125 C 444.167969 518.101562 443.847656 517.777344 443.492188 517.488281 C 443.136719 517.199219 442.757812 516.945312 442.355469 516.730469 C 441.953125 516.511719 441.53125 516.339844 441.09375 516.207031 C 440.65625 516.074219 440.207031 515.984375 439.753906 515.941406 C 439.296875 515.894531 438.84375 515.894531 438.386719 515.941406 C 437.933594 515.984375 437.484375 516.074219 437.046875 516.207031 C 436.609375 516.339844 436.1875 516.511719 435.785156 516.726562 C 404.445312 533.464844 379.558594 517 379.558594 517 C 378.777344 516.503906 377.933594 516.175781 377.023438 516.011719 C 376.113281 515.851562 375.207031 515.867188 374.304688 516.066406 Z M 374.304688 516.066406 " fill-opacity="1" fill-rule="nonzero"/></svg>