<svg xmlns="http://www.w3.org/2000/svg" xmlns:xlink="http://www.w3.org/1999/xlink" width="1080" zoomAndPan="magnify" viewBox="0 0 810 809.999993" height="1080" preserveAspectRatio="xMidYMid meet" version="1.0"><path fill="#4469ff" d="M 404.917969 -0.0742188 C 181.855469 -0.0742188 -0.0742188 181.855469 -0.0742188 404.917969 C -0.0742188 627.980469 181.855469 809.914062 404.917969 809.914062 C 627.980469 809.914062 809.914062 627.980469 809.914062 404.917969 C 809.914062 181.855469 627.980469 -0.0742188 404.917969 -0.0742188 Z M 198.089844 247.023438 L 611.753906 247.023438 C 615.09375 247.023438 618.34375 247.457031 621.429688 248.269531 L 411.90625 422.207031 C 409.894531 423.875 407.421875 424.710938 404.921875 424.710938 C 402.421875 424.710938 399.949219 423.875 397.933594 422.207031 L 188.410156 248.269531 C 191.503906 247.453125 194.746094 247.023438 198.089844 247.023438 Z M 159.984375 524.714844 L 159.984375 285.121094 C 159.984375 279.621094 161.164062 274.394531 163.269531 269.667969 L 323.019531 402.285156 L 162.78125 539.019531 C 160.980469 534.601562 159.980469 529.773438 159.980469 524.714844 Z M 611.753906 562.816406 L 198.089844 562.816406 C 194.234375 562.816406 190.519531 562.234375 187.007812 561.167969 L 348.457031 423.398438 L 377.140625 447.210938 C 385.304688 453.984375 395.125 457.371094 404.921875 457.371094 C 414.71875 457.371094 424.539062 453.984375 432.703125 447.210938 L 461.382812 423.398438 L 622.835938 561.167969 C 619.316406 562.242188 615.609375 562.816406 611.753906 562.816406 Z M 649.851562 524.714844 C 649.851562 529.773438 648.863281 534.601562 647.054688 539.019531 L 486.8125 402.285156 L 646.566406 269.664062 C 648.679688 274.398438 649.851562 279.621094 649.851562 285.121094 Z M 649.851562 524.714844 " fill-opacity="1" fill-rule="evenodd"/></svg>